<?xml version="1.0" encoding="UTF-8" standalone="no"?>
<svg
   xmlns:dc="http://purl.org/dc/elements/1.1/"
   xmlns:cc="http://creativecommons.org/ns#"
   xmlns:rdf="http://www.w3.org/1999/02/22-rdf-syntax-ns#"
   xmlns:svg="http://www.w3.org/2000/svg"
   xmlns="http://www.w3.org/2000/svg"
   xmlns:sodipodi="http://sodipodi.sourceforge.net/DTD/sodipodi-0.dtd"
   xmlns:inkscape="http://www.inkscape.org/namespaces/inkscape"
   width="210mm"
   height="297mm"
   viewBox="0 0 210 297"
   version="1.1"
   id="svg8"
   inkscape:version="1.0.2-2 (e86c870879, 2021-01-15)"
   sodipodi:docname="circle.svg">
  <defs
     id="defs2" />
  <sodipodi:namedview
     id="base"
     pagecolor="#ffffff"
     bordercolor="#666666"
     borderopacity="1.0"
     inkscape:pageopacity="0.0"
     inkscape:pageshadow="2"
     inkscape:zoom="89.6"
     inkscape:cx="4.0262414"
     inkscape:cy="3.2124723"
     inkscape:document-units="mm"
     inkscape:current-layer="layer1"
     inkscape:document-rotation="0"
     showgrid="false"
     inkscape:window-width="1920"
     inkscape:window-height="986"
     inkscape:window-x="-11"
     inkscape:window-y="-11"
     inkscape:window-maximized="1" />
  <metadata
     id="metadata5">
    <rdf:RDF>
      <cc:Work
         rdf:about="">
        <dc:format>image/svg+xml</dc:format>
        <dc:type
           rdf:resource="http://purl.org/dc/dcmitype/StillImage" />
        <dc:title></dc:title>
      </cc:Work>
    </rdf:RDF>
  </metadata>
  <g
     inkscape:label="Layer 1"
     inkscape:groupmode="layer"
     id="layer1">
    <path
       id="path835"
       style="fill:none;fill-rule:evenodd;stroke:#000000;stroke-width:0.01;stroke-miterlimit:4;stroke-dasharray:none"
       d="m 0.60000002,0.30000001 c 0,0.0414214 -0.008395,0.080882 -0.0235755,0.11677354 -0.0151808,0.0358915 -0.0371478,0.0682138 -0.0642925,0.0953585 -0.0271447,0.0271447 -0.059467,0.0491117 -0.0953585,0.0642925 -0.0358915,0.0151808 -0.0753522,0.0235755 -0.11677354,0.0235755 -0.0414214,0 -0.080882,-0.008395 -0.11677354,-0.0235755 C 0.14733496,0.56124371 0.11501263,0.53927671 0.08786797,0.51213205 0.06072331,0.48498739 0.03875631,0.45266506 0.02357549,0.41677355 0.00839466,0.38088205 0,0.34142137 0,0.30000001 0,0.25857865 0.00839466,0.21911797 0.02357549,0.18322647 0.03875631,0.14733496 0.06072331,0.11501263 0.08786797,0.08786797 0.11501263,0.06072331 0.14733496,0.03875631 0.18322647,0.02357549 0.21911797,0.00839466 0.25857865,0 0.30000001,0 c 0.0414214,0 0.080882,0.00839466 0.11677354,0.02357549 0.0358915,0.01518082 0.0682138,0.03714782 0.0953585,0.06429248 0.0271447,0.02714466 0.0491117,0.05946699 0.0642925,0.0953585 0.0151808,0.0358915 0.0235755,0.0753522 0.0235755,0.11677354 z"
       sodipodi:nodetypes="sssssssssssssssss" />
  </g>
</svg>
